<?xml version="1.0" encoding="utf-8"?>
<svg version="1.1" id="Layer_1" xmlns="http://www.w3.org/2000/svg" xmlns:xlink="http://www.w3.org/1999/xlink" 
	 x="0px" y="0px" viewBox="0 0 512 512" style="enable-background:new 0 0 512 512;" xml:space="preserve">
<style type="text/css">
	.st0{fill:url(#vedoxaGradient);}
</style>
<defs>
	<linearGradient id="vedoxaGradient" gradientUnits="userSpaceOnUse" x1="0" y1="256" x2="512" y2="256">
		<stop  offset="0" style="stop-color:#F59E0B"/>
		<stop  offset="0.4" style="stop-color:#EAB308"/>
		<stop  offset="0.7" style="stop-color:#FCD34D"/>
		<stop  offset="1" style="stop-color:#D97706"/>
	</linearGradient>
</defs>
<g>
	<path class="st0" d="M256,0C114.6,0,0,114.6,0,256s114.6,256,256,256s256-114.6,256-256S397.4,0,256,0z M256,480
		C132.3,480,32,379.7,32,256S132.3,32,256,32s224,100.3,224,224S379.7,480,256,480z"/>
	<path class="st0" d="M382.1,165.4l-12.8,12.8l-11.2-11.2l-25.6,25.6l11.2,11.2l-12.8,12.8c-28.7-28.7-75.1-28.7-103.8,0
		l-12.8-12.8l11.2-11.2l-25.6-25.6l-11.2,11.2l-12.8-12.8c42.8-42.8,112.2-42.8,155,0z M310.8,241.2c2.6,2.6,6.8,2.6,9.4,0
		c2.6-2.6,2.6-6.8,0-9.4c-2.6-2.6-6.8-2.6-9.4,0C308.2,234.4,308.2,238.6,310.8,241.2z M201.2,241.2c2.6,2.6,6.8,2.6,9.4,0
		c2.6-2.6,2.6-6.8,0-9.4c-2.6-2.6-6.8-2.6-9.4,0C198.6,234.4,198.6,238.6,201.2,241.2z M256,290.7l12.8-12.8l11.2,11.2l25.6-25.6
		l-11.2-11.2l12.8-12.8c28.7,28.7,75.1,28.7,103.8,0l12.8,12.8l-11.2,11.2l25.6,25.6l11.2-11.2l12.8,12.8
		c-42.8,42.8-112.2,42.8-155,0z"/>
</g>
</svg>

